<?xml version="1.0" standalone="no"?>
<!DOCTYPE svg PUBLIC "-//W3C//DTD SVG 20010904//EN"
 "http://www.w3.org/TR/2001/REC-SVG-20010904/DTD/svg10.dtd">
<svg version="1.0" xmlns="http://www.w3.org/2000/svg"
 width="512.000000pt" height="512.000000pt" viewBox="0 0 512.000000 512.000000"
 preserveAspectRatio="xMidYMid meet">

<g transform="translate(0.000000,512.000000) scale(0.100000,-0.100000)"
fill="#000000" stroke="none">
<path d="M310 2710 l0 -2410 -155 0 -155 0 0 -150 0 -150 2560 0 2560 0 0 150
0 150 -165 0 -165 0 0 215 0 215 -1375 0 -1375 0 0 -215 0 -215 -150 0 -150 0
0 1035 0 1035 495 0 495 0 0 1375 0 1375 -1210 0 -1210 0 0 -2410z m990 1525
l0 -265 -150 0 -150 0 0 265 0 265 150 0 150 0 0 -265z m740 0 l0 -265 -150 0
-150 0 0 265 0 265 150 0 150 0 0 -265z m-740 -1070 l0 -265 -150 0 -150 0 0
265 0 265 150 0 150 0 0 -265z m740 0 l0 -265 -150 0 -150 0 0 265 0 265 150
0 150 0 0 -265z m-740 -1060 l0 -265 -150 0 -150 0 0 265 0 265 150 0 150 0 0
-265z m0 -1070 l0 -265 -150 0 -150 0 0 265 0 265 150 0 150 0 0 -265z"/>
<path d="M3770 4410 c-166 -23 -330 -103 -457 -223 -86 -82 -141 -158 -188
-261 -55 -121 -70 -194 -69 -346 1 -116 5 -147 28 -223 14 -48 39 -112 54
-142 15 -29 144 -231 287 -449 l260 -396 196 0 196 0 198 303 c369 562 388
594 421 758 21 106 15 272 -15 377 -82 286 -311 509 -596 582 -88 23 -229 31
-315 20z"/>
<path d="M2042 1853 l3 -218 1373 -3 1372 -2 0 220 0 220 -1375 0 -1375 0 2
-217z"/>
<path d="M2042 1183 l3 -148 1373 -3 1372 -2 0 150 0 150 -1375 0 -1376 0 3
-147z"/>
</g>
</svg>
